<?xml version="1.0" encoding="UTF-8"?>
<svg width="64px" height="65px" viewBox="0 0 64 65" version="1.1" xmlns="http://www.w3.org/2000/svg" xmlns:xlink="http://www.w3.org/1999/xlink">
    <!-- Generator: Sketch 51.3 (57544) - http://www.bohemiancoding.com/sketch -->
    <title>Group 3</title>
    <desc>Created with Sketch.</desc>
    <defs></defs>
    <g id="Citoyen" stroke="none" stroke-width="1" fill="none" fill-rule="evenodd">
        <g id="Connexion-Copy" transform="translate(-1041.000000, -720.000000)" fill-rule="nonzero">
            <g id="Group-4" transform="translate(936.000000, 720.000000)">
                <g id="Group-3" transform="translate(105.000000, 0.000000)">
                    <rect id="rect2987" fill="#D0422A" x="0" y="0" width="63.1944444" height="65" rx="7"></rect>
                    <path d="M32.1311185,35.9914495 L29.83262,34.1419321 C29.1327453,33.540333 28.1750221,32.7463609 28.1750221,31.293155 C28.1750221,29.8337807 29.1327453,28.9058415 29.9632186,28.0469099 C32.6408624,25.8631494 35.3157156,23.539639 35.3157156,18.6420322 C35.3157156,13.6062177 32.2576242,10.9575238 30.7918315,9.7001604 L34.743835,9.7001604 L38.8915504,7 L26.325061,7 C22.8768482,7 17.9075893,7.84543857 14.2694317,10.9575238 C11.5266747,13.4082547 10.1896201,16.7882742 10.1896201,19.8309664 C10.1896201,24.9955436 14.0175364,30.2312487 20.7757359,30.2312487 C21.4145901,30.2312487 22.1124184,30.1662891 22.8150836,30.0986308 C22.4993772,30.8943377 22.1801362,31.5568485 22.1801362,32.6815941 C22.1801362,34.732544 23.1977636,35.9908712 24.0944664,37.1817329 C21.2231571,37.3868279 15.8619163,37.7158666 11.9093547,40.2329065 C8.14599359,42.5521762 7,45.9273767 7,48.3100639 C7,53.2138389 11.4613754,57.7812504 20.7109947,57.7812504 C31.6807207,57.7812504 37.4871502,51.4928914 37.4871502,45.2669862 C37.4890106,40.6924426 34.9384307,38.4414094 32.1311185,35.9914495 Z M23.7763415,28.375563 C18.288781,28.375563 15.8025702,21.0254905 15.8025702,16.5901185 C15.8025702,14.8631955 16.1179045,13.0807581 17.2036218,11.6882711 C18.2268304,10.3622857 20.0085155,9.50161919 21.6718806,9.50161919 C26.9620549,9.50161919 29.7057421,16.9180006 29.7057421,21.6876158 C29.7057421,22.8809834 29.5788642,24.9955436 28.1121413,26.5248891 C27.0859561,27.5848679 25.3695703,28.375563 23.7763415,28.375563 Z M23.8386642,55.0062997 C17.0149793,55.0062997 12.6146244,51.6239672 12.6146244,46.921432 C12.6146244,42.2198606 16.694436,40.6294106 18.0988363,40.1029873 C20.7757359,39.1692653 24.2211582,39.0391534 24.7960154,39.0391534 C25.4337533,39.0391534 25.7528084,39.0391534 26.2603198,39.105655 C31.1118167,42.6822881 33.217766,44.4656893 33.217766,47.8520698 C33.217766,51.9522348 29.9632186,55.0062997 23.8386642,55.0062997 Z" id="path13-7" fill="#FFFFFF"></path>
                    <polygon id="polygon15" fill="#FFFFFF" points="48.5368619 38.5905272 48.5368619 31.9286024 54.9486588 31.9286024 54.9486588 28.6218311 48.5368619 28.6218311 48.5368619 22 45.3801705 22 45.3801705 28.6218311 39 28.6218311 39 31.9286024 45.3801705 31.9286024 45.3801705 38.5905272"></polygon>
                </g>
            </g>
        </g>
    </g>
</svg>