<?xml version="1.0" encoding="utf-8"?>
<!-- Generator: Adobe Illustrator 21.1.0, SVG Export Plug-In . SVG Version: 6.00 Build 0)  -->
<svg version="1.1" xmlns="http://www.w3.org/2000/svg" xmlns:xlink="http://www.w3.org/1999/xlink" x="0px" y="0px"
	 viewBox="0 0 283.5 141.7" style="enable-background:new 0 0 283.5 141.7;" xml:space="preserve">
<style type="text/css">
	.st0{fill:#FECB00;}
	.st1{fill:#939399;}
	.st2{font-family:'ArialMT';}
	.st3{font-size:18px;}
	.st4{font-family:'ArialRoundedMTBold';}
	.st5{fill:#61C250;}
	.st6{fill:#FFFFFF;}
	.st7{fill:#0900BD;}
	.st8{font-size:43px;}
</style>
<g id="Calque_1">
	<path class="st0" d="M208.7,14c-12.3,0-22.9,7.3-27.6,17.9C139,7.4,95.8,8.6,66.7,14.1c-32.3,6.1-54.1,18.2-55,18.7
		c-1.2,0.7-1.6,2.2-1,3.4c0.7,1.2,2.2,1.6,3.4,1c0.2-0.1,22.1-12.3,53.7-18.2c28.5-5.4,70.7-6.5,111.7,17.7
		c-0.6,2.4-0.9,4.9-0.9,7.5c0,16.7,13.5,30.2,30.2,30.2S239,60.9,239,44.2S225.4,14,208.7,14z M208.7,65c-11.5,0-20.8-9.3-20.8-20.8
		s9.3-20.8,20.8-20.8c11.5,0,20.8,9.3,20.8,20.8S220.2,65,208.7,65z"/>
	<text transform="matrix(1 0 0 1 10.376 104.71)" class="st1 st2 st3">identity access management</text>
	<text transform="matrix(1 0 0 1 10.3765 128.764)" class="st1 st4 st3">cirb-cibg</text>
</g>
<g id="Calque_2">
	<g>
		<path class="st5" d="M219.4,37.1c0-5.6-4.5-10.1-10.1-10.1c-5.6,0-10.1,4.5-10.1,10.1c0,4.8,3.4,8.8,7.9,9.9v1.6h-0.6
			c-0.7,0-1.2,0.5-1.2,1.2V50c0,0.7,0.5,1.2,1.2,1.2h0.7c0.8,0,1,1,0.6,1.6c-0.3,0.3-0.7,0.3-0.7,0.3l0,0h-0.6
			c-0.7,0-1.2,0.5-1.2,1.2v0.2c0,0.7,0.5,1.2,1.2,1.2h0.8c0.8,0.1,0.9,1.7-0.2,1.8c-0.4,0-1.6,0-1.6,0s-0.9,0,0.3,1
			c0.4,0.4,1.3,1.3,2.1,2c0.5,0.5,1.1,0.8,1.5,0.9c0,0,0,0,0,0c0.3,0.1,0.5,0.1,0.8,0.1c1.8,0,3.2-1.4,3.2-3.2V46.6
			c0-0.1,0-0.2,0-0.2C216.9,44.7,219.4,41.2,219.4,37.1z"/>
		<circle class="st6" cx="209.1" cy="35.6" r="3.5"/>
	</g>
	<text transform="matrix(1 0 0 1 10.3765 74.0961)" class="st7 st4 st8">IAM</text>
</g>
</svg>
