<?xml version="1.0" encoding="UTF-8"?>
<svg width="18px" height="14px" viewBox="0 0 18 14" version="1.1" xmlns="http://www.w3.org/2000/svg" xmlns:xlink="http://www.w3.org/1999/xlink">
    <!-- Generator: Sketch 62 (91390) - https://sketch.com -->
    <title>Group 9</title>
    <desc>Created with Sketch.</desc>
    <g id="Page-1" stroke="none" stroke-width="1" fill="none" fill-rule="evenodd">
        <g id="Group-9" fill="#65AC4F">
            <g id="Group-3">
                <path d="M9.01058018,8.02259193 C9.1308281,8.0441253 9.13355728,8.04277751 9.08617492,8.1555221 C8.98979903,8.38474123 8.96013984,8.6174082 9.03691832,8.85725297 C9.04780213,8.89210757 9.05638422,8.9278398 9.06993143,8.96172273 C9.18031488,9.23795795 9.39253257,9.42291926 9.6635754,9.55067766 C9.7415705,9.58747559 9.78346163,9.63301851 9.770309,9.7170206 C9.78431655,9.80164957 9.74337898,9.85151797 9.66288489,9.882768 C9.6177056,9.90025799 9.5764721,9.92755867 9.53464674,9.95232048 C9.2850427,10.1000137 9.11132933,10.3032486 9.03455085,10.5768196 C8.93939157,10.8745882 9.02037889,11.1522025 9.14161326,11.4252093 C9.24877432,11.7314721 9.40088449,12.0168598 9.58370605,12.2879233 C9.67426191,12.4397853 9.77790464,12.5829963 9.89565356,12.7169295 C10.0265551,12.8829903 10.1613038,13.045666 10.3406728,13.1683467 C10.4723635,13.2666416 10.621613,13.3258192 10.7864812,13.3501109 C10.8259062,13.3618649 10.8661204,13.3665038 10.9074197,13.3695128 C11.1848744,13.3898238 11.4301381,13.3070128 11.6564291,13.1613256 C11.6684637,13.1544612 11.6804655,13.1475655 11.6924344,13.1406698 C11.7485961,13.0927134 11.7983131,13.12738 11.8487863,13.1517656 C11.9462802,13.1880621 11.9620633,13.2591817 11.954369,13.3504557 C11.9435839,13.4781827 11.9524948,13.6064426 11.9951751,13.7294367 C12.0089525,13.7690556 11.9919198,13.7862948 11.9613728,13.8051013 C11.8759794,13.8576966 11.7804584,13.8906079 11.6903957,13.9340194 C11.521516,13.9829161 11.3492823,13.9989016 11.1725438,13.9988076 C7.91319046,13.9973344 4.65387,13.9963001 1.39451666,14 C0.990336326,14.0004688 0.64826929,13.8771299 0.370748788,13.6012082 C0.13252177,13.3643411 0.00293547872,13.0790161 0.00129139991,12.7476466 C-0.000878784103,12.3090492 9.91692027e-06,11.8704204 0.0015873341,11.4317916 C0.00188326828,11.3458775 0.0110901096,11.2599948 0.0161867539,11.174112 C0.0512056323,10.9738862 0.092800826,10.7749767 0.146792374,10.5785122 C0.248297799,10.2777659 0.381238011,9.99040351 0.550512364,9.71855646 C0.65912021,9.55400013 0.783971554,9.40072767 0.910828675,9.24886568 C1.04656382,9.11772213 1.18229897,8.98651588 1.31806699,8.85534098 L1.79425798,8.52998961 L1.79425798,8.52998961 C2.08190601,8.37367677 2.38053648,8.24096601 2.69712029,8.14662039 C2.90279455,8.09374295 3.11251324,8.05926448 3.32183736,8.02318747 L3.60103482,8.00177947 L3.60103482,8.00177947 C3.64164356,8.00246904 3.68225231,8.00344071 3.72286106,8.00384818 C3.90999011,8.00591689 4.09734933,7.9934733 4.28428109,8.01099463 C4.34290894,8.04428202 4.40528529,8.0694513 4.47055521,8.08835177 C4.76655516,8.20930851 5.0739979,8.29262103 5.3915024,8.34280287 C5.69019863,8.4028581 5.99175557,8.43392006 6.29732405,8.42508104 C6.60289254,8.43366931 6.90441659,8.40248197 7.20294842,8.34179986 C7.23533677,8.33738035 7.2681197,8.33477879 7.30004771,8.32829057 C7.63188858,8.26080681 7.95501583,8.16718209 8.26472739,8.03365639 C8.29432081,8.02086801 8.3262817,8.00344071 8.35682869,8.00394221 C8.57476777,8.00757813 8.7935289,7.98375664 9.01058018,8.02259193 Z M14.441202,6.01642069 C14.5983834,6.03931642 14.7566699,6.05664376 14.9111861,6.09369378 C15.0238718,6.12072691 15.0736979,6.18263249 15.0760056,6.29309816 C15.0781182,6.39379583 15.0784433,6.49452459 15.0795483,6.59525336 C15.0785083,6.74208468 15.0782157,6.88888488 15.0758431,7.03568508 C15.075323,7.06651344 15.0874139,7.08212982 15.1169261,7.09245778 L15.3344643,7.17287281 L15.3344643,7.17287281 C15.5180377,7.26299364 15.7002459,7.35538538 15.8704282,7.46777977 C15.9448261,7.52293484 16.012431,7.60714508 16.095572,7.62493905 C16.1776405,7.64251525 16.2535985,7.55301659 16.3329043,7.51189138 C16.4701942,7.44065331 16.6045265,7.36409571 16.7397363,7.28918686 C16.9228871,7.18771149 16.970178,7.19281325 17.1205664,7.33205413 C17.1519962,7.38232519 17.1965894,7.42186388 17.2375749,7.46432675 C17.4543656,7.72529452 17.6379064,8.00626494 17.7905375,8.30583815 C17.8552172,8.4614109 17.9198319,8.61701476 17.9844791,8.77258752 C18.0014128,8.83483528 18.0085958,8.89708305 17.9846091,8.95933082 C17.9185968,9.05072709 17.8033109,9.07701362 17.7186098,9.14367877 L17.2188535,9.41323244 L17.2188535,9.41323244 C17.1896014,9.42878661 17.1843035,9.44910035 17.1898939,9.47716006 C17.2244439,9.65021569 17.2339021,9.82551112 17.2400776,10.0010865 C17.2348772,10.1741733 17.2230788,10.346669 17.1900564,10.5172981 C17.184076,10.5481887 17.1898614,10.5700579 17.2222663,10.587323 C17.3894259,10.6762617 17.5553504,10.767378 17.7216975,10.8577477 C17.7744488,10.8886383 17.8271026,10.9196222 17.879919,10.9504194 C17.9923771,11.0161513 18.0224743,11.0937044 17.983569,11.2132226 C17.9297776,11.37847 17.8576874,11.5369669 17.7892699,11.6968326 C17.6331936,12.0022231 17.4412672,12.2858377 17.2217787,12.5527472 C17.1889189,12.5891751 17.1560265,12.6255718 17.1231666,12.6619997 C16.977881,12.8031693 16.9256498,12.8095154 16.7445141,12.7090977 C16.5488174,12.6005918 16.3524707,12.4932059 16.157619,12.3833935 C16.1203713,12.3623953 16.0927443,12.3579157 16.0575768,12.3874687 C15.9971224,12.4382686 15.9325077,12.4845889 15.8696157,12.5327757 C15.6939404,12.6356198 15.5193377,12.7402682 15.3326117,12.8245718 C15.2626666,12.8515738 15.1933066,12.880069 15.1225165,12.9048002 C15.0899816,12.9161547 15.0752255,12.9318955 15.0757781,12.9663635 C15.0782808,13.1135682 15.0784758,13.260835 15.0795158,13.4080396 C15.0784433,13.5062797 15.0778907,13.6045198 15.0762006,13.7026977 C15.0743155,13.8129767 15.0153237,13.8839348 14.9031255,13.9044041 C14.7495844,13.9324327 14.5953282,13.9569461 14.4414296,13.9829837 C14.1489083,14.0056617 13.8563871,14.0056617 13.5638659,13.983046 C13.4125024,13.9575371 13.2610414,13.9327438 13.1099055,13.906395 C12.9804161,13.8838104 12.9235695,13.8206294 12.9197342,13.6944229 C12.9167765,13.5988581 12.9167115,13.5032 12.9153464,13.4076041 C12.9165489,13.3224917 12.9187916,13.2374104 12.9186616,13.1523291 C12.9185316,13.0776069 12.9411532,12.9891037 12.9072533,12.9320511 C12.8708831,12.870861 12.7648929,12.8718876 12.6945578,12.8344642 C12.6878299,12.8308868 12.6789567,12.8309801 12.6710586,12.8293625 C12.4939533,12.7448722 12.3236734,12.6488097 12.1551162,12.5498852 C12.0872513,12.499272 12.0164612,12.4517074 11.9524965,12.3968945 C11.910991,12.3613066 11.8796262,12.3603422 11.8324328,12.3872509 C11.6381337,12.4980899 11.441462,12.6052581 11.2453752,12.7132973 C11.0752254,12.8070578 11.0233191,12.8010539 10.8838515,12.6732298 C10.8517067,12.6281538 10.815174,12.5867175 10.7720109,12.5508807 C10.5585679,12.2819492 10.3613761,12.0032497 10.2107927,11.6965216 C10.139255,11.5441219 10.077013,11.388238 10.0183137,11.2310165 C9.99192181,11.157912 9.99500953,11.0854607 10.0231891,11.0135382 C10.1029824,10.9407758 10.201887,10.8968198 10.2969239,10.8470153 C10.4567055,10.7602231 10.6165196,10.6734308 10.7763662,10.5866386 C10.7983053,10.5747241 10.8163441,10.5631207 10.8095836,10.5325412 C10.7707758,10.3571214 10.7716534,10.1778752 10.7553697,10.0002777 C10.7709058,9.82016049 10.7708083,9.63851896 10.8106887,9.46073486 C10.8168966,9.43314177 10.7970052,9.42396482 10.7784139,9.41388572 C10.6023811,9.31816539 10.4261533,9.22272504 10.2499905,9.12722247 C10.1783228,9.07113415 10.084001,9.04550089 10.0241966,8.973454 C9.98792402,8.90184262 9.99760972,8.82936022 10.0196138,8.75662894 L10.201627,8.30611813 L10.201627,8.30611813 C10.2415724,8.26253536 10.2594812,8.20728697 10.2863932,8.1569848 C10.4174427,7.91219336 10.580767,7.68774676 10.7548822,7.46998846 C10.8028881,7.42394814 10.849854,7.37703678 10.8845016,7.32038851 C11.0198089,7.19856829 11.0812708,7.1911334 11.241605,7.27941884 C11.4426645,7.39010227 11.6440166,7.50028798 11.8434511,7.61361562 C11.8826165,7.63592029 11.9083908,7.63511147 11.9427458,7.60742506 C12.0086606,7.55432314 12.0783131,7.50542085 12.1464381,7.45477649 C12.3126226,7.34592845 12.4908656,7.25739414 12.6699861,7.17025971 C12.7397686,7.14428426 12.8092262,7.11731334 12.8795938,7.09279998 C12.9099185,7.08225425 12.9200917,7.06430475 12.9196367,7.0346274 L12.9152814,6.59488006 L12.9152814,6.59488006 C12.9165164,6.50199059 12.917329,6.40913223 12.9190841,6.31627387 C12.9216843,6.17637972 12.9745657,6.11186104 13.1178035,6.08604113 C13.2659493,6.05938129 13.4152651,6.03875647 13.5640609,6.01551855 C13.8564521,5.99402269 14.1488433,5.99536035 14.441202,6.01642069 Z M13.5632159,8.78627518 C13.344215,8.84964285 13.1625593,8.96779228 13.0115208,9.13086214 C12.7754237,9.37711567 12.6475594,9.66381003 12.6567576,10.0016154 C12.6567576,10.3285017 12.7695408,10.6139828 12.99943,10.8564411 C13.1534261,11.0251727 13.3382345,11.149295 13.5638334,11.2146847 C13.8564846,11.3141069 14.1489733,11.3117426 14.4412995,11.2131604 C14.6625756,11.1464019 14.8459864,11.0252038 14.9975449,10.8583076 C15.2320169,10.616907 15.3452876,10.3301815 15.3469452,10.0017398 C15.3394697,9.67575563 15.2342271,9.38604376 14.9997551,9.14423872 C14.8504392,8.9727074 14.6640057,8.85424688 14.4418196,8.78692846 C14.1490383,8.68290221 13.8561921,8.68290221 13.5632159,8.78627518 Z M6.83239163,0.0154760884 C7.0171209,0.0343633721 7.19868723,0.0697410761 7.37967847,0.109305302 C7.68124534,0.193355312 7.96888244,0.311408825 8.24306899,0.462443178 C8.45578562,0.592896464 8.65827855,0.737475266 8.847289,0.900621769 L9.1217631,1.18063933 L9.1217631,1.18063933 C9.26693948,1.35973297 9.40767495,1.54192654 9.52358602,1.74192083 C9.55074269,1.79346937 9.57732428,1.84530554 9.60511994,1.89650254 C9.72981699,2.12615401 9.80898668,2.37351032 9.88697426,2.62134599 C9.89838006,2.68072429 9.91122357,2.73987888 9.92099997,2.7995448 C9.94262946,2.93172383 9.9627254,3.06415852 9.98349227,3.19649734 C9.98435489,3.21787736 9.98521752,3.23925738 9.98608014,3.26063741 C9.9840993,3.2656868 9.98425905,3.27064032 9.98655938,3.27556187 C9.98314083,3.35082339 9.98949869,3.42547769 10.0000099,3.49990829 L9.9840354,3.83550113 L9.9840354,3.83550113 C9.95269341,4.01130307 9.92135141,4.18713697 9.89000941,4.36297087 C9.80243713,4.66852302 9.68764427,4.96292176 9.53138158,5.24041463 C9.410774,5.44354081 9.2694315,5.6318384 9.12045319,5.81467115 C9.01853579,5.9162662 8.91661839,6.0178932 8.81466904,6.11948826 C8.63438068,6.27196073 8.4416961,6.40720774 8.24121595,6.53155701 C8.19897933,6.55306487 8.15623153,6.57361398 8.11457,6.59620841 C7.88137405,6.72263497 7.63057418,6.8042242 7.37971042,6.88565364 C7.188176,6.91844273 6.99664158,6.95126378 6.80510716,6.98405287 C6.7034134,6.98060139 6.60245447,6.99095584 6.5013997,7 C6.42155908,6.99105171 6.34175041,6.98191167 6.26114301,6.98609819 C6.25622286,6.98382916 6.25127076,6.98366937 6.24625477,6.98568274 C6.21960928,6.98459616 6.19296379,6.98354154 6.1663183,6.98245496 C6.15513614,6.97436954 6.14446516,6.97459325 6.13430537,6.98427658 C6.11852255,6.98331783 6.10277168,6.98235909 6.08698886,6.98140034 C5.93535878,6.93506098 5.77609287,6.92687969 5.62286534,6.88846596 C5.31787992,6.79623465 5.02091371,6.6844769 4.74372395,6.52500559 C4.5349051,6.40068827 4.34071891,6.25610947 4.1553187,6.09941852 C4.06487101,6.00852946 3.97442331,5.91767236 3.88397561,5.82678329 C3.7317385,5.64069082 3.58668991,5.44942112 3.46442098,5.24178883 C3.31215192,4.96813094 3.19633669,4.67958055 3.11122448,4.37843863 C3.07183133,4.19372035 3.03508995,4.00855467 3.01579274,3.82041687 C3.0105531,3.7134848 3.00528151,3.60658469 3.00000992,3.49965262 C3.00496202,3.37712497 3.00988217,3.25459731 3.01483427,3.13210161 L3.01604833,3.11653798 L3.01604833,3.11653798 L3.01758188,3.08410042 C3.0466555,2.93054138 3.07576106,2.77698233 3.10486663,2.62342328 C3.19135264,2.31572993 3.31125734,2.02174664 3.46649767,1.74230433 C3.58889439,1.5392101 3.73196214,1.35110426 3.88183503,1.16791998 C3.9781294,1.07188565 4.07442377,0.97588328 4.17075008,0.879848953 C4.35004803,0.725203325 4.54490515,0.59209751 4.74465047,0.465830745 C4.9801148,0.33991552 5.22139386,0.227550563 5.47823209,0.151585972 C5.52631538,0.137364583 5.57439866,0.123047319 5.62248195,0.108730054 C5.78756258,0.0776667045 5.9526432,0.0466033546 6.11772383,0.0155080466 C6.35593578,-0.0010462901 6.59395603,-0.00890800211 6.83239163,0.0154760884 Z" id="Combined-Shape"></path>
            </g>
        </g>
    </g>
</svg>