<?xml version="1.0" encoding="UTF-8"?>
<svg width="10px" height="15px" viewBox="0 0 10 15" version="1.1" xmlns="http://www.w3.org/2000/svg" xmlns:xlink="http://www.w3.org/1999/xlink">
    <!-- Generator: Sketch 51.3 (57544) - http://www.bohemiancoding.com/sketch -->
    <title>ico/15_arrow-white</title>
    <desc>Created with Sketch.</desc>
    <defs></defs>
    <g id="Symbols" stroke="none" stroke-width="1" fill="none" fill-rule="evenodd">
        <g id="buttons/btn-second" transform="translate(-16.000000, -14.000000)" fill="#FFFFFF">
            <g id="ico/15_arrow-white" transform="translate(16.000000, 14.000000)">
                <g id="Group-7">
                    <g id="Group-3" transform="translate(0.000000, 0.001855)">
                        <path d="M9.99323259,7.54233219 C10.0060743,7.22338502 9.85418982,6.95751389 9.61275431,6.72606309 C8.07504477,5.25209844 6.53875577,3.77677006 5.00189856,2.30193262 C4.35907437,1.6850396 3.71840942,1.06601918 3.07251686,0.452071795 C2.58737297,-0.00919333724 1.89426156,-0.00690228526 1.41264061,0.4541992 C1.05398188,0.797584253 0.698732448,1.14424224 0.344846741,1.49220939 C0.120457746,1.71285952 0.00317770407,1.97540317 0.00812119421,2.28944093 C0.013348793,2.61984336 0.161483032,2.87911407 0.399225132,3.10674645 C1.90426218,4.54781815 3.40691272,5.99112635 4.91041558,7.43367086 C5.03905997,7.55711493 5.03917361,7.55727857 4.90677899,7.68437741 C3.39736667,9.13401327 1.88710202,10.5828855 0.378769311,12.0335578 C-0.126489474,12.5195881 -0.125409861,13.1694831 0.376951016,13.6564408 C0.580088685,13.8534713 0.78572651,14.0481561 0.990227901,14.2438774 C1.12097469,14.3690125 1.25132373,14.494584 1.38275238,14.6190645 C1.91812668,15.1260961 2.58362273,15.127678 3.11513316,14.6196099 C3.82296139,13.9429314 4.52823265,13.2638527 5.23475399,12.5858649 C6.68456032,11.1947054 8.1339689,9.80310955 9.58468438,8.41276829 C9.83151796,8.17613535 9.99897158,7.90720949 9.99323259,7.54233219" id="Fill-1"></path>
                    </g>
                </g>
            </g>
        </g>
    </g>
</svg>