<?xml version="1.0" encoding="UTF-8"?>
<svg width="19px" height="14px" viewBox="0 0 19 14" version="1.1" xmlns="http://www.w3.org/2000/svg" xmlns:xlink="http://www.w3.org/1999/xlink">
    <!-- Generator: Sketch 62 (91390) - https://sketch.com -->
    <title>Combined Shape</title>
    <desc>Created with Sketch.</desc>
    <g id="Page-1" stroke="none" stroke-width="1" fill="none" fill-rule="evenodd">
        <g id="Group-9" transform="translate(-182.000000, -213.000000)" fill="#65AC4F">
            <g id="Group-3" transform="translate(182.000000, 212.707000)">
                <path d="M4.25279584,8.29516947 C4.3530206,8.29679696 4.45467168,8.28205567 4.5529483,8.31244589 C4.61525395,8.34530863 4.68072531,8.37150493 4.75030168,8.38912562 C5.05810755,8.50674295 5.37756746,8.58796088 5.70728989,8.63703591 C6.02271437,8.69719038 6.34154809,8.72520196 6.66399979,8.71900499 C6.98648627,8.72529586 7.30511126,8.69559419 7.62064011,8.63675423 C8.0040755,8.5789784 8.37220408,8.4755077 8.72690442,8.33335285 C8.79428914,8.3063741 8.86118682,8.29247786 8.93552917,8.29369847 C9.12912543,8.29685956 9.32282605,8.29513817 9.51645709,8.29538856 C9.57890188,8.31285276 9.64339918,8.30975427 9.70744423,8.3107245 C9.82297579,8.329691 9.93920312,8.3458094 10.0538998,8.36831255 C10.1861297,8.39428977 10.3170028,8.4259319 10.4485022,8.4551015 C10.4660006,8.4871818 10.4584864,8.52157814 10.4592865,8.55506684 C10.463809,8.7552479 10.4510069,8.95555415 10.4661746,9.15564132 C10.4573036,9.44214186 10.4573036,9.7286424 10.4661398,10.0151742 C10.4538595,10.1970148 10.454764,10.3789805 10.4671138,10.5606332 C10.4740019,10.6614123 10.4757065,10.7633494 10.5095902,10.8612804 C10.5580502,11.1703154 10.678139,11.4558144 10.8583418,11.7215957 C11.0016691,11.955422 11.191056,12.1553214 11.4125176,12.3316848 C11.4995576,12.4204142 11.5926508,12.5037291 11.6908579,12.5824432 C11.9111714,12.7910746 12.137399,12.9943855 12.3689144,13.1929391 C12.4563719,13.2811051 12.5485954,13.3649521 12.6469068,13.4433219 C12.7498102,13.5378727 12.848713,13.6363044 12.957113,13.7254094 C13.0170183,13.7747348 13.010165,13.806377 12.9612876,13.8560467 C12.7969134,14.0229894 12.594307,14.1381342 12.3687752,14.2242972 C12.1366685,14.2946235 11.89663,14.2899914 11.6560349,14.2899288 C8.24543593,14.2890211 4.83480219,14.285015 1.42420323,14.293 C0.679179444,14.2947487 -0.0116443508,13.7239071 0.000148844186,13.0112237 C0.0072456341,12.5837577 0.000983760646,12.1561351 0.00237528808,11.7286065 C0.00261880538,11.6532099 0.0108288172,11.5778447 0.0153512814,11.5025108 C0.0156643751,11.4973779 0.0160122569,11.4922451 0.0163601388,11.4871122 L0.0188301,11.4557205 L0.0188301,11.4557205 C0.0585234201,11.2615173 0.0974861882,11.0671889 0.155130212,10.8764285 C0.258311971,10.5747798 0.403970106,10.290032 0.577528365,10.0163636 C0.695077645,9.86103232 0.816314473,9.70807971 0.9463875,9.56097981 C1.08487927,9.42689981 1.22514523,9.294416 1.37678694,9.17213529 C1.55041477,9.04321944 1.73402682,8.92660364 1.92150035,8.81474512 C2.21754781,8.65819326 2.5302936,8.53563087 2.8571634,8.44164342 C3.05058571,8.39156686 3.24922625,8.36296062 3.44564035,8.32512152 C3.56743379,8.31457414 3.68919244,8.30402676 3.81098588,8.29344809 C3.95824427,8.29385496 4.10557223,8.29279084 4.25279584,8.29516947 Z M14.6387025,7.293 C14.8005444,7.29507981 14.9624503,7.29482383 15.1241965,7.29978338 C15.3997048,7.3082306 15.6555979,7.38758333 15.8974025,7.51848333 C16.0819586,7.61837817 16.2306066,7.76226898 16.381427,7.90404798 C16.4681303,8.00007117 16.5587631,8.09212673 16.6556894,8.17787887 C16.8503087,8.38339603 17.0502631,8.58350568 17.2562874,8.77753589 L17.5245758,9.04560732 L17.5245758,9.04560732 C17.7227731,9.24392513 17.9210024,9.44217896 18.1192317,9.64043278 C18.2091297,9.74032762 18.3044587,9.83478296 18.4037171,9.92533466 C18.4309037,9.95426001 18.4571959,9.98408128 18.4854368,10.0119187 C18.6986171,10.2217555 18.927036,10.4206173 18.9963284,10.7327486 C19.006168,10.9091805 19.0005773,11.0823166 18.9245122,11.2480934 C18.8641649,11.3796333 18.771775,11.4840078 18.6717819,11.5841906 C18.6455536,11.6104602 18.6210186,11.6384256 18.5957168,11.6656231 C18.4379959,11.8146974 18.2841725,11.9677074 18.1360037,12.1263489 C17.9909657,12.2605766 17.8519017,12.4008197 17.7170227,12.5452225 C17.5590144,12.6938168 17.4058938,12.8473388 17.2572778,13.0052763 C17.1124953,13.1402719 16.9726646,13.2801951 16.8377217,13.4249818 C16.6800967,13.5734162 16.5271678,13.7264902 16.3786796,13.8841077 L16.1940276,14.0585237 L16.1940276,14.0585237 C15.9730523,14.2600092 15.7139645,14.3275551 15.4216522,14.2768397 C15.4113334,14.2750799 15.4005993,14.2754318 15.3900569,14.2747919 C15.230349,14.2281018 15.0952783,14.1444691 14.9760123,14.0351651 L14.8893882,13.9485498 C14.8102243,13.8626697 14.7226264,13.7846608 14.6387983,13.7031003 C14.5450986,13.6101488 14.451335,13.5171654 14.3576034,13.4242139 L13.7627558,12.8298044 L13.7627558,12.8298044 C13.6719633,12.7304855 13.5774011,12.6350062 13.4774079,12.5449345 C13.2840026,12.342585 13.08654,12.1443312 12.8837104,11.9514849 C12.7931415,11.8513981 12.697557,11.7562708 12.5976277,11.6655591 C12.3501046,11.4209735 12.1569868,11.1425351 12.0629996,10.8025342 C12.048975,10.7597542 12.0556838,10.7101907 12.0213731,10.67397 C11.9954004,10.4240729 12.0070929,10.1731519 12.0001285,9.9227109 L12.0000004,8.17880679 L12.0000004,8.17880679 C11.9999049,8.08675123 12.0188173,7.99719144 12.035813,7.90737567 C12.1051693,7.73187176 12.2052902,7.58014167 12.3579635,7.46396033 C12.4615347,7.38505556 12.5841462,7.35200259 12.7003044,7.3028551 C12.7607475,7.2995914 12.8212226,7.29635969 12.8816658,7.29312799 C13.1748726,7.29965539 13.4680795,7.29975138 13.7612543,7.293 L14.6387025,7.293 Z M13.7609988,8.3902434 C13.6019681,8.3804843 13.4612109,8.43420737 13.3419539,8.53250236 C13.183658,8.6629224 13.0905972,8.83013907 13.1036634,9.04378348 C13.0922904,9.40592628 13.3951771,9.70669871 13.7604876,9.69607568 C14.113914,9.70097123 14.4230303,9.38650406 14.4035108,9.04199165 C14.4017538,8.67623318 14.1158627,8.38624377 13.7609988,8.3902434 Z M7.37963623,0.403578367 C7.68110362,0.487625334 7.96860946,0.605783413 8.24269686,0.756741868 C8.45573041,0.886920358 8.65790142,1.03209239 8.84732492,1.19491141 C8.93885778,1.28838929 9.03039065,1.38186716 9.12192351,1.47534503 C9.2703569,1.6523264 9.40581914,1.83854686 9.52479589,2.03665985 C9.68888412,2.33601922 9.81980966,2.64803839 9.89843527,2.98176463 C9.96156578,3.24973028 9.97897779,3.52258721 10,3.7953802 C9.98801926,4.25583225 9.9058793,4.70183425 9.72945889,5.12907033 C9.6715999,5.26906336 9.59856531,5.40131984 9.53140926,5.53654946 C9.4104517,5.73945783 9.26968598,5.92817189 9.12035802,6.11074786 C9.01844185,6.21244181 8.91655763,6.31416773 8.81464146,6.41586168 C8.63435527,6.56838663 8.44170496,6.70368019 8.24122722,6.82810422 C8.19892722,6.84955554 8.15608409,6.87004779 8.11442306,6.89271393 C7.88116602,7.01937581 7.63014554,7.10073737 7.37925285,7.18241862 C7.28979665,7.20118452 7.19979732,7.21768062 7.11104399,7.23935572 C7.03612443,7.25767406 6.95689179,7.24913829 6.88411278,7.2785819 C6.75654185,7.27954098 6.62890703,7.27883765 6.50184728,7.293 C6.45810958,7.27663178 6.41239108,7.28443226 6.36763103,7.2832494 C6.21849476,7.27925325 6.07038086,7.26406789 5.92360879,7.23929178 C5.50588029,7.16879975 5.11211327,7.0294461 4.74396906,6.8188971 C4.54821973,6.69811755 4.36048951,6.56611682 4.1852512,6.41672485 L3.88110012,6.11439234 L3.88110012,6.11439234 C3.72998304,5.93104911 3.58774769,5.74131204 3.46448982,5.5378602 C3.31589669,5.26260558 3.19548225,4.97577813 3.11123368,4.67418091 C3.06711261,4.49023026 3.02510014,4.30592796 3.01605868,4.11599907 L3.00008436,3.79509247 L3.00008436,3.79509247 C2.99765626,3.45257471 3.04768783,3.11792136 3.14477976,2.7894061 C3.22267055,2.52572432 3.33752592,2.27857061 3.46650259,2.03713939 C3.58912148,1.83413511 3.73196386,1.64577272 3.88183494,1.46249342 C3.9781601,1.36648999 4.07445331,1.27045458 4.17077847,1.17441917 C4.35007425,1.01972032 4.54496097,0.886632635 4.74463998,0.760226508 C5.02361553,0.607637625 5.31505105,0.485675214 5.62246089,0.403034891 C5.78757147,0.371928882 5.95265011,0.340822872 6.11772875,0.309716863 C6.12849544,0.309109448 6.13926213,0.308534003 6.15002882,0.307958558 L6.16568366,0.307063421 C6.57584033,0.270107052 6.98008651,0.307255236 7.37963623,0.403578367 Z" id="Combined-Shape"></path>
            </g>
        </g>
    </g>
</svg>