<?xml version="1.0" encoding="UTF-8"?>
<svg width="13px" height="8px" viewBox="0 0 13 8" version="1.1" xmlns="http://www.w3.org/2000/svg" xmlns:xlink="http://www.w3.org/1999/xlink">
    <!-- Generator: Sketch 51.3 (57544) - http://www.bohemiancoding.com/sketch -->
    <title>ico/15_arrow-right</title>
    <desc>Created with Sketch.</desc>
    <defs>
        <path d="M7.99408636,6.51349818 C7.99867727,6.83085949 7.86472273,7.0647646 7.66726818,7.27058212 C6.50676818,8.47986679 5.34731364,9.6902427 4.18754091,10.9002391 C3.62235909,11.4899361 3.05817727,12.0805821 2.49195,12.6691405 C2.06676818,13.1110456 1.53440455,13.1096697 1.10613182,12.6686661 C1.00099545,12.560396 0.896722727,12.451177 0.792131818,12.3423376 C0.628540909,12.172104 0.464040909,12.0027719 0.301540909,11.8313996 C-0.100322727,11.4078558 -0.101186364,10.8425931 0.302995455,10.4198558 C1.50958636,9.15809672 2.71772273,7.89790328 3.92517727,6.63704562 C4.03108636,6.52649818 4.03099545,6.52635584 3.92808636,6.41898723 C2.72535909,5.16429745 1.52331364,3.90894343 0.319359091,2.65553467 C0.129177273,2.45754562 0.0106772727,2.23203832 0.00649545455,1.94466241 C0.00254090909,1.67152007 0.0963590909,1.44316606 0.275859091,1.25125 C0.55895,0.948596715 0.843131818,0.647082117 1.13004091,0.348414234 C1.51531364,-0.0526405109 2.06976818,-0.0546332117 2.45785909,0.346563869 C2.97454091,0.880560219 3.48704091,1.41896898 4.00126818,1.95552737 C5.23067727,3.23830474 6.45963182,4.52150912 7.68972273,5.80352737 C7.88285909,6.00483759 8.00435909,6.23608577 7.99408636,6.51349818" id="path-1"></path>
    </defs>
    <g id="Organisation" stroke="none" stroke-width="1" fill="none" fill-rule="evenodd">
        <g id="Demande-d'accès" transform="translate(-771.000000, -391.000000)">
            <g id="ico/15_arrow-right" transform="translate(777.500000, 394.500000) rotate(-270.000000) translate(-777.500000, -394.500000) translate(773.000000, 387.000000)">
                <g id="Group-7" transform="translate(1.000000, 1.000000)">
                    <g id="color/green-copy-+-color/white-Mask">
                        <mask id="mask-2" fill="white">
                            <use xlink:href="#path-1"></use>
                        </mask>
                        <use id="Mask" fill="#0488BA" xlink:href="#path-1"></use>
                        <g id="color/grey" mask="url(#mask-2)" fill="#979797" fill-rule="nonzero">
                            <g transform="translate(-32.000000, -21.000000)" id="Rectangle-5-Copy">
                                <rect x="0" y="0" width="70" height="58"></rect>
                            </g>
                        </g>
                    </g>
                </g>
            </g>
        </g>
    </g>
</svg>